<svg xmlns="http://www.w3.org/2000/svg" viewBox="0 0 200 200" width="200" height="200">
  <!-- Background rounded square -->
  <rect x="10" y="10" width="180" height="180" rx="30" fill="#191919"/>
  
  <!-- Bell body -->
  <path d="M 100 40 
           C 85 40, 75 50, 75 65
           L 75 95
           C 75 100, 70 105, 65 110
           L 135 110
           C 130 105, 125 100, 125 95
           L 125 65
           C 125 50, 115 40, 100 40 Z" 
        fill="#FFFFFF"/>
  
  <!-- Bell clapper - now WHITE -->
  <circle cx="100" cy="115" r="5" fill="#FFFFFF"/>
  
  <!-- Bell top/handle -->
  <rect x="95" y="33" width="10" height="10" rx="3" fill="#FFFFFF"/>
  
  <!-- Bottom arc of bell -->
  <path d="M 65 110 Q 100 125, 135 110" 
        fill="none" 
        stroke="#FFFFFF" 
        stroke-width="3" 
        stroke-linecap="round"/>
  
  <!-- NOTION LOGO - Left side, positioned higher -->
  <g transform="translate(60, 150) scale(1.6)">
    <g transform="translate(-7.5, -7.5)">
      <path
        d="M3.25781 3.11684C3.67771 3.45796 3.83523 3.43193 4.62369 3.37933L12.0571 2.93299C12.2147 2.93299 12.0836 2.77571 12.0311 2.74957L10.7965 1.85711C10.56 1.67347 10.2448 1.46315 9.64083 1.51576L2.44308 2.04074C2.18059 2.06677 2.12815 2.19801 2.2327 2.30322L3.25781 3.11684ZM3.7041 4.84917V12.6704C3.7041 13.0907 3.91415 13.248 4.38693 13.222L12.5562 12.7493C13.0292 12.7233 13.0819 12.4341 13.0819 12.0927V4.32397C13.0819 3.98306 12.9508 3.79921 12.6612 3.82545L4.12422 4.32397C3.80918 4.35044 3.7041 4.50803 3.7041 4.84917ZM11.7688 5.26872C11.8212 5.50518 11.7688 5.74142 11.5319 5.76799L11.1383 5.84641V11.6205C10.7965 11.8042 10.4814 11.9092 10.2188 11.9092C9.79835 11.9092 9.69305 11.7779 9.37812 11.3844L6.80345 7.34249V11.2532L7.61816 11.437C7.61816 11.437 7.61816 11.9092 6.96086 11.9092L5.14879 12.0143C5.09615 11.9092 5.14879 11.647 5.33259 11.5944L5.80546 11.4634V6.29276L5.1489 6.24015C5.09625 6.00369 5.22739 5.66278 5.5954 5.63631L7.53935 5.50528L10.2188 9.5998V5.97765L9.53564 5.89924C9.4832 5.61018 9.69305 5.40028 9.95576 5.37425L11.7688 5.26872ZM1.83874 1.33212L9.32557 0.780787C10.245 0.701932 10.4815 0.754753 11.0594 1.17452L13.4492 2.85424C13.8436 3.14309 13.975 3.22173 13.975 3.53661V12.7493C13.975 13.3266 13.7647 13.6681 13.0293 13.7203L4.33492 14.2454C3.78291 14.2717 3.52019 14.193 3.23111 13.8253L1.47116 11.5419C1.1558 11.1216 1.02466 10.8071 1.02466 10.4392V2.25041C1.02466 1.77825 1.23504 1.38441 1.83874 1.33212Z"
        fill="#FFFFFF"
      />
    </g>
  </g>
  
  <!-- ARROW - Centered between logos -->
  <g transform="translate(100, 150)">
    <path d="M -8 0 L 8 0 M 4 -4 L 8 0 L 4 4" 
          fill="none" 
          stroke="#FFFFFF" 
          stroke-width="2.5" 
          stroke-linecap="round" 
          stroke-linejoin="round"/>
  </g>
  
  <!-- OMARCHY LOGO - Right side, same scale as Notion -->
  <g transform="translate(140, 150) scale(0.08)">
    <!-- Using the actual Omarchy SVG path -->
    <path d="M0 0 C99 0 198 0 300 0 C300 99 300 198 300 300 C260.4 300 220.8 300 180 300 C180 293.4 180 286.8 180 280 C213 280 246 280 280 280 C280 194.2 280 108.4 280 20 C240.4 20 200.8 20 160 20 C160 33.2 160 46.4 160 60 C127 60 94 60 60 60 C60 119.4 60 178.8 60 240 C119.4 240 178.8 240 240 240 C240 180.6 240 121.2 240 60 C233.4 60 226.8 60 220 60 C220 53.4 220 46.8 220 40 C233.2 40 246.4 40 260 40 C260 112.6 260 185.2 260 260 C227 260 194 260 160 260 C160 273.2 160 286.4 160 300 C107.2 300 54.4 300 0 300 C0 201 0 102 0 0 Z M20 20 C20 59.6 20 99.2 20 140 C26.6 140 33.2 140 40 140 C40 107 40 74 40 40 C73 40 106 40 140 40 C140 33.4 140 26.8 140 20 C100.4 20 60.8 20 20 20 Z M20 160 C20 199.6 20 239.2 20 280 C59.6 280 99.2 280 140 280 C140 273.4 140 266.8 140 260 C107 260 74 260 40 260 C40 227 40 194 40 160 C33.4 160 26.8 160 20 160 Z" 
          fill="#9ECE6A" 
          transform="translate(-150,-150)"/>
  </g>
</svg>